<?xml version="1.0" encoding="UTF-8"?><svg xmlns="http://www.w3.org/2000/svg" viewBox="0 0 436 436"><defs><style>.cls-1{fill:#fff;}.cls-2{fill:#231f20;}</style></defs><g id="Layer_1"><circle class="cls-1" cx="218" cy="218" r="218"/><circle class="cls-2" cx="120.82" cy="231.24" r="29.43"/><circle class="cls-2" cx="286.33" cy="231.24" r="29.43"/></g><g id="Layer_2"><path class="cls-2" d="m218.75,218c-16.08-28.43-32.16-56.86-48.24-85.29h96.16c-15.97,28.43-31.95,56.86-47.92,85.29Z"/><path class="cls-2" d="m121.42,283.02h194.33v10.59c0,10.71-8.7,19.41-19.41,19.41h-155.5c-10.72,0-19.43-8.71-19.43-19.43v-10.57h0Z"/><path class="cls-2" d="m120.25,231.24h30v81.78h-10.57c-10.72,0-19.43-8.71-19.43-19.43v-62.35h0Z"/><path class="cls-2" d="m285.75,231.24h30v62.35c0,10.72-8.71,19.43-19.43,19.43h-10.57v-81.78h0Z"/></g></svg>