<?xml version="1.0" encoding="UTF-8"?><svg id="Layer_1" xmlns="http://www.w3.org/2000/svg" viewBox="0 0 436 436"><defs><style>.cls-1{fill:#fff;}.cls-2{fill:#231f20;}</style></defs><circle class="cls-1" cx="218" cy="218" r="218"/><path class="cls-2" d="m343.55,265.89V87.91H92.45v134.84c-15.18,6.9-25.69,21.79-25.69,39.05,0,23.83,20.02,43.15,44.72,43.15s44.72-19.32,44.72-43.15c0-17.26-10.51-32.15-25.69-39.05v-91.69h72.89v77.75h-16.94l16.14,26.97,16.14,26.97,16.14-26.97,16.14-26.97h-16.94v-77.75h71.4v134.84c-15.18,6.9-25.69,21.79-25.69,39.05,0,23.83,20.02,43.15,44.72,43.15s44.72-19.32,44.72-43.15c0-17.26-10.51-32.15-25.69-39.05Z"/></svg>